<svg xmlns="http://www.w3.org/2000/svg" viewBox="10.00 118.00 588.73 220.00" role="img" aria-label="trato">
  <path d="M94.81 302.52Q76.33 302.52 67.61 292.75Q58.90 282.99 58.90 261.57L58.90 213.48L42.94 213.48L43.36 189.75L54.49 189.75Q61 189.75 64.15 187.86Q67.30 185.97 67.93 180.93L70.66 165.18L87.88 165.18L87.88 189.75L115.81 189.75L115.81 214.32L87.88 214.32L87.88 260.31Q87.88 267.87 91.45 271.23Q95.02 274.59 102.37 274.59Q106.36 274.59 110.03 273.75Q113.71 272.91 116.44 271.02L116.44 299.16Q109.93 301.26 104.47 301.89Q99.01 302.52 94.81 302.52 M161.68 300L131.23 300L131.23 189.75L156.22 189.75L156.43 227.34L160.42 227.34Q162.10 213.27 166.19 204.45Q170.29 195.63 177.64 191.43Q184.99 187.23 195.91 187.23Q197.80 187.23 200 187.34Q202.21 187.44 205.15 188.07L203.89 220.20Q200.74 218.73 196.96 218.10Q193.18 217.47 190.24 217.47Q182.05 217.47 176.17 221.25Q170.29 225.03 166.62 232.06Q162.94 239.10 161.68 249.18 M242.20 302.94Q232.96 302.94 225.82 299.26Q218.68 295.59 214.69 288.66Q210.70 281.73 210.70 271.44Q210.70 262.41 214.16 256.32Q217.63 250.23 224.35 246.45Q231.07 242.67 240.94 240.15Q250.81 237.63 263.41 235.74Q270.13 234.69 274.44 233.75Q278.74 232.80 280.84 230.59Q282.94 228.39 282.94 224.19Q282.94 218.31 278.74 214.11Q274.54 209.91 265.51 209.91Q259.42 209.91 254.27 212.01Q249.13 214.11 245.45 218.31Q241.78 222.51 240.10 229.02L213.43 220.83Q215.95 212.22 220.67 205.92Q225.40 199.62 232.12 195.31Q238.84 191.01 247.45 188.91Q256.06 186.81 266.14 186.81Q282.31 186.81 292.50 191.95Q302.68 197.10 307.72 207.92Q312.76 218.73 312.76 235.74L312.76 254.64Q312.76 261.99 313.07 269.55Q313.39 277.11 313.91 284.77Q314.44 292.44 315.07 300L288.40 300Q287.56 294.75 286.82 287.93Q286.09 281.10 285.67 274.17L281.89 274.17Q278.95 282.15 273.49 288.66Q268.03 295.17 260.15 299.06Q252.28 302.94 242.20 302.94M255.01 281.10Q259 281.10 263.09 279.63Q267.19 278.16 271.07 275.54Q274.96 272.91 278.21 268.92Q281.47 264.93 283.57 259.89L283.15 246.03Q281.26 246.87 279.16 247.50Q274.12 249.18 268.76 250.02Q263.41 250.86 258.16 251.91Q252.91 252.96 248.81 254.64Q244.72 256.32 242.31 259.15Q239.89 261.99 239.89 267.03Q239.89 273.54 244.09 277.32Q248.29 281.10 255.01 281.10 M374.17 302.52Q355.69 302.52 346.98 292.75Q338.26 282.99 338.26 261.57L338.26 213.48L322.30 213.48L322.72 189.75L333.85 189.75Q340.36 189.75 343.51 187.86Q346.66 185.97 347.29 180.93L350.02 165.18L367.24 165.18L367.24 189.75L395.17 189.75L395.17 214.32L367.24 214.32L367.24 260.31Q367.24 267.87 370.81 271.23Q374.38 274.59 381.73 274.59Q385.72 274.59 389.39 273.75Q393.07 272.91 395.80 271.02L395.80 299.16Q389.29 301.26 383.83 301.89Q378.37 302.52 374.17 302.52" fill="#2E312A"/>
  <circle cx="488.73" cy="228.00" r="80" fill="#66785B"/>
  <g transform="translate(439.13 178.40) scale(4.133)"><path d="M5 12.5L10 17.5L19 7.5" fill="none" stroke="#F4F1EA" stroke-width="3.4" stroke-linecap="round" stroke-linejoin="round"/></g>
</svg>
